<svg width="188" height="52" viewBox="0 0 188 52" fill="none" xmlns="http://www.w3.org/2000/svg">
<path d="M12.64 15.896C14.0693 15.896 15.232 16.1093 16.128 16.536C17.024 16.9413 17.8453 17.4213 18.592 17.976C18.848 18.1893 19.0613 18.296 19.232 18.296C19.6373 18.296 19.904 17.6453 20.032 16.344H20.768C20.7253 17.1547 20.6933 18.1467 20.672 19.32C20.6507 20.4933 20.64 22.04 20.64 23.96H19.904C19.7547 22.808 19.5413 21.7733 19.264 20.856C18.9867 19.9387 18.4853 19.16 17.76 18.52C17.2053 17.9227 16.5013 17.464 15.648 17.144C14.816 16.8027 13.9733 16.632 13.12 16.632C11.9893 16.632 10.9973 16.9307 10.144 17.528C9.312 18.104 8.608 18.904 8.032 19.928C7.47733 20.9307 7.06133 22.104 6.784 23.448C6.50667 24.7707 6.368 26.1893 6.368 27.704C6.368 31.544 6.92267 34.36 8.032 36.152C9.16267 37.9227 10.816 38.808 12.992 38.808C13.5893 38.808 14.1013 38.7333 14.528 38.584C14.976 38.4133 15.3387 38.2427 15.616 38.072C15.9573 37.8373 16.1813 37.592 16.288 37.336C16.3947 37.08 16.448 36.76 16.448 36.376V33.24C16.448 32.3013 16.3627 31.608 16.192 31.16C16.0213 30.6907 15.7013 30.3707 15.232 30.2C14.784 30.0293 14.112 29.9333 13.216 29.912V29.272C13.6427 29.2933 14.144 29.3147 14.72 29.336C15.3173 29.336 15.936 29.3467 16.576 29.368C17.2373 29.368 17.8347 29.368 18.368 29.368C19.2 29.368 19.9573 29.3573 20.64 29.336C21.3227 29.3147 21.888 29.2933 22.336 29.272V29.912C21.9093 29.9333 21.5787 30.008 21.344 30.136C21.1307 30.264 20.992 30.52 20.928 30.904C20.864 31.288 20.832 31.8747 20.832 32.664V39H20.192C20.1707 38.6373 20.0853 38.2427 19.936 37.816C19.7867 37.3893 19.5627 37.176 19.264 37.176C19.1147 37.176 18.944 37.2187 18.752 37.304C18.56 37.368 18.2293 37.528 17.76 37.784C17.0133 38.2747 16.2133 38.68 15.36 39C14.528 39.2987 13.6107 39.448 12.608 39.448C10.2187 39.448 8.192 39 6.528 38.104C4.88533 37.1867 3.63733 35.8747 2.784 34.168C1.93067 32.44 1.504 30.3813 1.504 27.992C1.504 25.5387 1.984 23.4053 2.944 21.592C3.904 19.7787 5.216 18.3813 6.88 17.4C8.56533 16.3973 10.4853 15.896 12.64 15.896ZM41.0443 16.344C40.9589 17.2187 40.8949 18.072 40.8523 18.904C40.8309 19.7147 40.8203 20.3333 40.8203 20.76C40.8203 21.1653 40.8309 21.56 40.8523 21.944C40.8736 22.3067 40.8949 22.616 40.9163 22.872H40.1803C40.0096 21.4 39.7323 20.248 39.3483 19.416C38.9643 18.5627 38.4416 17.9653 37.7803 17.624C37.1403 17.2613 36.2976 17.08 35.2523 17.08H33.4923C32.8523 17.08 32.3616 17.1333 32.0203 17.24C31.6789 17.3467 31.4443 17.5707 31.3163 17.912C31.2096 18.2533 31.1562 18.776 31.1562 19.48V35.864C31.1562 36.5467 31.2096 37.0693 31.3163 37.432C31.4443 37.7733 31.6789 37.9973 32.0203 38.104C32.3616 38.2107 32.8523 38.264 33.4923 38.264H35.3163C36.4043 38.264 37.3109 38.0613 38.0363 37.656C38.7829 37.2507 39.3803 36.5893 39.8283 35.672C40.2763 34.7333 40.6069 33.4533 40.8203 31.832H41.5563C41.4923 32.4933 41.4603 33.3467 41.4603 34.392C41.4603 34.84 41.4709 35.4907 41.4923 36.344C41.5349 37.1973 41.5989 38.0827 41.6843 39C40.5963 38.9573 39.3696 38.936 38.0043 38.936C36.6389 38.9147 35.4229 38.904 34.3563 38.904C33.8656 38.904 33.2149 38.904 32.4043 38.904C31.6149 38.904 30.7509 38.9147 29.8123 38.936C28.8949 38.936 27.9563 38.9467 26.9963 38.968C26.0576 38.968 25.1616 38.9787 24.3083 39V38.36C25.0123 38.3173 25.5349 38.232 25.8763 38.104C26.2389 37.976 26.4736 37.72 26.5803 37.336C26.7083 36.952 26.7723 36.376 26.7723 35.608V19.736C26.7723 18.9467 26.7083 18.3707 26.5803 18.008C26.4736 17.624 26.2389 17.368 25.8763 17.24C25.5349 17.0907 25.0123 17.0053 24.3083 16.984V16.344C25.1616 16.3653 26.0576 16.3867 26.9963 16.408C27.9563 16.408 28.8949 16.4187 29.8123 16.44C30.7509 16.44 31.6149 16.44 32.4043 16.44C33.2149 16.44 33.8656 16.44 34.3563 16.44C35.3376 16.44 36.4469 16.44 37.6843 16.44C38.9429 16.4187 40.0629 16.3867 41.0443 16.344ZM35.8923 27.288C35.8923 27.288 35.8923 27.3947 35.8923 27.608C35.8923 27.8213 35.8923 27.928 35.8923 27.928H30.1963C30.1963 27.928 30.1963 27.8213 30.1963 27.608C30.1963 27.3947 30.1963 27.288 30.1963 27.288H35.8923ZM36.8203 23.064C36.7349 24.28 36.6923 25.208 36.6923 25.848C36.7136 26.488 36.7243 27.0747 36.7243 27.608C36.7243 28.1413 36.7349 28.728 36.7563 29.368C36.7776 30.008 36.8309 30.936 36.9163 32.152H36.1803C36.0736 31.4267 35.9029 30.744 35.6683 30.104C35.4549 29.4427 35.1029 28.92 34.6123 28.536C34.1429 28.1307 33.4603 27.928 32.5642 27.928V27.288C33.2256 27.288 33.7589 27.1493 34.1643 26.872C34.5909 26.5947 34.9323 26.2427 35.1883 25.816C35.4443 25.368 35.6363 24.9093 35.7643 24.44C35.9136 23.9493 36.0203 23.4907 36.0843 23.064H36.8203ZM54.4523 16.248L62.2283 36.312C62.5483 37.08 62.8896 37.6133 63.2523 37.912C63.6363 38.1893 63.9883 38.3387 64.3083 38.36V39C63.7536 38.9573 63.0816 38.936 62.2923 38.936C61.5243 38.9147 60.7349 38.904 59.9243 38.904C58.9856 38.904 58.1109 38.9147 57.3003 38.936C56.4896 38.936 55.8283 38.9573 55.3163 39V38.36C56.4043 38.3173 57.0976 38.136 57.3963 37.816C57.6949 37.4747 57.6309 36.76 57.2043 35.672L51.5723 20.472L52.1483 19.768L47.0283 33.048C46.6229 34.1147 46.3776 34.9893 46.2923 35.672C46.2069 36.3547 46.2603 36.888 46.4523 37.272C46.6443 37.656 46.9643 37.9333 47.4123 38.104C47.8603 38.2533 48.4149 38.3387 49.0763 38.36V39C48.3936 38.9573 47.7323 38.936 47.0923 38.936C46.4523 38.9147 45.8123 38.904 45.1723 38.904C44.7029 38.904 44.2549 38.9147 43.8283 38.936C43.4229 38.936 43.0602 38.9573 42.7402 39V38.36C43.2096 38.2533 43.6683 37.976 44.1163 37.528C44.5856 37.08 45.0336 36.3013 45.4603 35.192L52.7883 16.248C53.0443 16.2693 53.3216 16.28 53.6203 16.28C53.9189 16.28 54.1963 16.2693 54.4523 16.248ZM57.2363 29.784V30.424H47.7003L48.0203 29.784H57.2363ZM64.652 16.344C65.1853 16.3653 65.868 16.3867 66.7 16.408C67.532 16.4293 68.364 16.44 69.196 16.44C70.2413 16.44 71.2333 16.4293 72.172 16.408C73.1107 16.3867 73.772 16.376 74.156 16.376C76.076 16.376 77.6547 16.6107 78.892 17.08C80.1507 17.528 81.0893 18.168 81.708 19C82.3267 19.832 82.636 20.8133 82.636 21.944C82.636 22.648 82.4973 23.3733 82.22 24.12C81.9427 24.8453 81.4627 25.5173 80.78 26.136C80.0973 26.7547 79.1587 27.2667 77.964 27.672C76.7907 28.056 75.2867 28.248 73.452 28.248H70.38V27.608H73.132C74.476 27.608 75.5 27.3733 76.204 26.904C76.9293 26.4133 77.4093 25.7733 77.644 24.984C77.9 24.1733 78.028 23.2773 78.028 22.296C78.028 20.6107 77.6973 19.3093 77.036 18.392C76.3747 17.4533 75.2333 16.984 73.612 16.984C72.7373 16.984 72.1613 17.1653 71.884 17.528C71.628 17.8907 71.5 18.6267 71.5 19.736V35.608C71.5 36.376 71.564 36.952 71.692 37.336C71.82 37.72 72.0547 37.976 72.396 38.104C72.7587 38.232 73.2813 38.3173 73.964 38.36V39C73.4307 38.9573 72.748 38.936 71.916 38.936C71.084 38.9147 70.2413 38.904 69.388 38.904C68.428 38.904 67.532 38.9147 66.7 38.936C65.868 38.936 65.1853 38.9573 64.652 39V38.36C65.356 38.3173 65.8787 38.232 66.22 38.104C66.5827 37.976 66.8173 37.72 66.924 37.336C67.052 36.952 67.116 36.376 67.116 35.608V19.736C67.116 18.9467 67.052 18.3707 66.924 18.008C66.8173 17.624 66.5827 17.368 66.22 17.24C65.8787 17.0907 65.356 17.0053 64.652 16.984V16.344ZM70.38 27.704C71.3827 27.7467 72.2147 27.8 72.876 27.864C73.5587 27.9067 74.1347 27.9493 74.604 27.992C75.0947 28.0347 75.532 28.088 75.916 28.152C77.6867 28.3227 78.988 28.7387 79.82 29.4C80.6733 30.04 81.2387 31.0213 81.516 32.344L82.252 35.64C82.444 36.5147 82.6467 37.144 82.86 37.528C83.0947 37.8907 83.4253 38.0613 83.852 38.04C84.1507 38.04 84.4067 37.9653 84.62 37.816C84.8333 37.6453 85.0467 37.4213 85.26 37.144L85.708 37.528C85.1747 38.1893 84.6093 38.68 84.012 39C83.4147 39.2987 82.6573 39.448 81.74 39.448C80.716 39.448 79.852 39.2133 79.148 38.744C78.444 38.2533 77.964 37.336 77.708 35.992L77.1 32.792C76.9293 31.896 76.7267 31.1067 76.492 30.424C76.2787 29.7413 75.98 29.208 75.596 28.824C75.212 28.44 74.6467 28.248 73.9 28.248H70.444L70.38 27.704ZM102.933 16.344V16.984C102.25 17.0053 101.727 17.0907 101.365 17.24C101.023 17.368 100.789 17.624 100.661 18.008C100.533 18.3707 100.469 18.9467 100.469 19.736V35.608C100.469 36.376 100.533 36.952 100.661 37.336C100.789 37.72 101.023 37.976 101.365 38.104C101.727 38.232 102.25 38.3173 102.933 38.36V39C102.399 38.9573 101.717 38.936 100.885 38.936C100.053 38.9147 99.2101 38.904 98.3568 38.904C97.3968 38.904 96.5008 38.9147 95.6688 38.936C94.8368 38.936 94.1541 38.9573 93.6208 39V38.36C94.3248 38.3173 94.8474 38.232 95.1888 38.104C95.5514 37.976 95.7861 37.72 95.8928 37.336C96.0208 36.952 96.0848 36.376 96.0848 35.608V19.736C96.0848 18.9467 96.0208 18.3707 95.8928 18.008C95.7861 17.624 95.5514 17.368 95.1888 17.24C94.8474 17.0907 94.3248 17.0053 93.6208 16.984V16.344C94.1541 16.3653 94.8368 16.3867 95.6688 16.408C96.5008 16.4293 97.3968 16.44 98.3568 16.44C99.2101 16.44 100.053 16.4293 100.885 16.408C101.717 16.3867 102.399 16.3653 102.933 16.344ZM124.157 16.344C124.072 17.3253 124.008 18.2853 123.965 19.224C123.944 20.1413 123.933 20.8453 123.933 21.336C123.933 21.8267 123.944 22.2853 123.965 22.712C123.986 23.1387 124.008 23.512 124.029 23.832H123.293C122.994 22.1253 122.632 20.792 122.205 19.832C121.778 18.8507 121.213 18.1467 120.509 17.72C119.826 17.2933 118.92 17.08 117.789 17.08H116.765V35.32C116.765 36.1947 116.84 36.8453 116.989 37.272C117.16 37.6987 117.49 37.9867 117.981 38.136C118.472 38.264 119.186 38.3387 120.125 38.36V39C119.485 38.9573 118.653 38.936 117.629 38.936C116.605 38.9147 115.56 38.904 114.493 38.904C113.384 38.904 112.338 38.9147 111.357 38.936C110.397 38.936 109.618 38.9573 109.021 39V38.36C109.938 38.3387 110.642 38.264 111.133 38.136C111.624 37.9867 111.954 37.6987 112.125 37.272C112.296 36.8453 112.381 36.1947 112.381 35.32V17.08H111.325C110.216 17.08 109.309 17.2933 108.605 17.72C107.901 18.1467 107.336 18.8507 106.909 19.832C106.482 20.792 106.13 22.1253 105.853 23.832H105.117C105.16 23.512 105.181 23.1387 105.181 22.712C105.202 22.2853 105.213 21.8267 105.213 21.336C105.213 20.8453 105.192 20.1413 105.149 19.224C105.128 18.2853 105.074 17.3253 104.989 16.344C105.928 16.3653 106.962 16.3867 108.093 16.408C109.224 16.4293 110.354 16.44 111.485 16.44C112.616 16.44 113.65 16.44 114.589 16.44C115.506 16.44 116.53 16.44 117.661 16.44C118.792 16.44 119.922 16.4293 121.053 16.408C122.184 16.3867 123.218 16.3653 124.157 16.344ZM153.155 16.344V16.984C152.472 17.048 151.95 17.208 151.587 17.464C151.246 17.6987 151.011 18.0827 150.883 18.616C150.755 19.128 150.691 19.864 150.691 20.824V29.688C150.691 31.1173 150.595 32.3973 150.403 33.528C150.232 34.6587 149.891 35.64 149.379 36.472C148.846 37.368 148.046 38.0933 146.979 38.648C145.934 39.1813 144.654 39.448 143.139 39.448C142.115 39.448 141.102 39.3307 140.099 39.096C139.118 38.8613 138.254 38.424 137.507 37.784C136.846 37.2293 136.323 36.6 135.939 35.896C135.576 35.192 135.331 34.3493 135.203 33.368C135.075 32.3653 135.011 31.1707 135.011 29.784V19.736C135.011 18.9467 134.947 18.3707 134.819 18.008C134.712 17.624 134.478 17.368 134.115 17.24C133.774 17.0907 133.251 17.0053 132.547 16.984V16.344C133.08 16.3653 133.763 16.3867 134.595 16.408C135.427 16.4293 136.323 16.44 137.283 16.44C138.158 16.44 139.022 16.4293 139.875 16.408C140.728 16.3867 141.432 16.3653 141.987 16.344V16.984C141.262 17.0053 140.707 17.0907 140.323 17.24C139.96 17.368 139.715 17.624 139.587 18.008C139.459 18.3707 139.395 18.9467 139.395 19.736V31.32C139.395 32.3867 139.459 33.3573 139.587 34.232C139.736 35.0853 139.971 35.8213 140.291 36.44C140.632 37.0587 141.102 37.528 141.699 37.848C142.318 38.168 143.096 38.328 144.035 38.328C145.592 38.328 146.798 37.976 147.651 37.272C148.504 36.568 149.102 35.5867 149.443 34.328C149.784 33.0693 149.955 31.64 149.955 30.04V21.08C149.955 20.0347 149.88 19.2347 149.731 18.68C149.582 18.1253 149.283 17.72 148.835 17.464C148.408 17.208 147.768 17.048 146.915 16.984V16.344C147.32 16.3653 147.843 16.3867 148.483 16.408C149.144 16.4293 149.752 16.44 150.307 16.44C150.84 16.44 151.363 16.4293 151.875 16.408C152.408 16.3867 152.835 16.3653 153.155 16.344ZM154.965 16.344C155.498 16.3653 156.181 16.3867 157.013 16.408C157.845 16.4293 158.677 16.44 159.509 16.44C160.554 16.44 161.546 16.4293 162.485 16.408C163.423 16.3867 164.085 16.376 164.469 16.376C167.327 16.376 169.45 16.9627 170.837 18.136C172.245 19.3093 172.949 20.824 172.949 22.68C172.949 23.448 172.81 24.2587 172.533 25.112C172.255 25.944 171.775 26.7227 171.093 27.448C170.41 28.152 169.471 28.728 168.277 29.176C167.103 29.624 165.599 29.848 163.765 29.848H160.565V29.208H163.445C164.789 29.208 165.813 28.92 166.517 28.344C167.242 27.768 167.722 27.0107 167.957 26.072C168.213 25.1333 168.341 24.12 168.341 23.032C168.341 21.0053 168.01 19.4907 167.349 18.488C166.687 17.4853 165.546 16.984 163.925 16.984C163.05 16.984 162.474 17.1653 162.197 17.528C161.941 17.8907 161.812 18.6267 161.812 19.736V35.48C161.812 36.2907 161.898 36.8987 162.069 37.304C162.239 37.7093 162.57 37.976 163.061 38.104C163.551 38.232 164.255 38.3067 165.173 38.328V39C164.554 38.9573 163.754 38.936 162.773 38.936C161.791 38.9147 160.778 38.904 159.733 38.904C158.837 38.904 157.973 38.9147 157.141 38.936C156.309 38.936 155.583 38.9573 154.965 39V38.36C155.669 38.3173 156.191 38.232 156.533 38.104C156.895 37.976 157.13 37.72 157.237 37.336C157.365 36.952 157.429 36.376 157.429 35.608V19.736C157.429 18.9467 157.365 18.3707 157.237 18.008C157.13 17.624 156.895 17.368 156.533 17.24C156.191 17.0907 155.669 17.0053 154.965 16.984V16.344Z" fill="black"/>
</svg>
