<svg width="113" height="30" viewBox="0 0 113 30" fill="none" xmlns="http://www.w3.org/2000/svg">
<path d="M0 14.919H71.1V8.271L78.443 22.162V14.919H112.38V30H0V14.919Z" fill="#00A84F"/>
<path d="M78.442 14.984H112.379V0H0V14.984H71.1V8.335L78.443 22.227L78.442 14.984Z" fill="#006CB7"/>
<path d="M25.51 24.301C26.885 24.282 28.1971 23.7225 29.1627 22.7434C30.1283 21.7644 30.6697 20.4446 30.6697 19.0695C30.6697 17.6944 30.1283 16.3746 29.1627 15.3956C28.1971 14.4165 26.885 13.857 25.51 13.838C24.135 13.857 22.8228 14.4165 21.8573 15.3956C20.8917 16.3746 20.3503 17.6944 20.3503 19.0695C20.3503 20.4446 20.8917 21.7644 21.8573 22.7434C22.8228 23.7225 24.135 24.282 25.51 24.301Z" fill="white"/>
<path d="M39.456 6.065H24.409C26.6978 7.38983 28.5978 9.29345 29.9183 11.5848C31.2388 13.8761 31.9332 16.4744 31.932 19.119L39.456 6.065Z" fill="white"/>
<path d="M24.513 6.065H9.466C11.7619 7.38177 13.6677 9.28361 14.9892 11.5767C16.3107 13.8699 17.0008 16.4723 16.989 19.119L24.513 6.065Z" fill="white"/>
<path d="M10.463 24.301C11.4999 24.3109 12.5163 24.0125 13.3832 23.4437C14.2502 22.8748 14.9286 22.0612 15.3322 21.1061C15.7359 20.151 15.8467 19.0975 15.6505 18.0793C15.4543 17.0611 14.96 16.1242 14.2303 15.3875C13.5006 14.6507 12.5685 14.1475 11.5522 13.9415C10.536 13.7355 9.48146 13.8362 8.52252 14.2307C7.56358 14.6251 6.74348 15.2957 6.16634 16.1571C5.5892 17.0186 5.28105 18.0321 5.281 19.069C5.27533 19.7534 5.40513 20.4323 5.66292 21.0663C5.92071 21.7004 6.3014 22.2772 6.78307 22.7635C7.26474 23.2498 7.83786 23.6361 8.46943 23.8999C9.101 24.1638 9.77853 24.3001 10.463 24.301Z" fill="white"/>
<path d="M67.348 14.984C67.348 16.184 67.248 17.475 67.199 17.874C66.899 21.511 65.953 24.301 61.469 24.301C57.134 24.301 55.988 21.361 55.789 17.874C55.789 17.674 55.64 16.529 55.64 14.934C55.6343 13.952 55.6841 12.9704 55.789 11.994C56.038 8.755 56.989 5.567 61.469 5.567C66.252 5.567 66.95 8.606 67.199 11.994C67.2999 12.9871 67.3497 13.9858 67.348 14.984ZM64.01 14.933C64.01 13.289 63.91 12.492 63.91 11.993C63.91 10.299 63.462 8.705 61.568 8.705C59.575 8.705 59.226 10.299 59.226 11.993C59.226 12.441 59.126 13.293 59.126 14.933C59.126 16.478 59.226 17.524 59.226 17.873C59.276 20.314 60.073 21.161 61.518 21.161C63.013 21.161 63.86 20.314 63.91 17.823C63.91 17.475 64.009 16.678 64.009 14.934L64.01 14.933Z" fill="white"/>
<path d="M52.611 6.065L49.721 12.343L47.08 6.065H43.543L48.077 16.578V23.902H51.316V16.528L56.099 6.065H52.611Z" fill="white"/>
<path d="M82.364 6.065V23.902H91.781V20.665H85.603V16.528H91.233V13.289H85.603V9.304H91.781V6.065H82.364Z" fill="white"/>
<path d="M100.52 14.934L104.805 6.065H101.218L98.727 11.197L96.235 6.065H92.648L96.933 14.934L92.648 23.902H96.186L98.727 18.671L101.268 23.902H104.855L100.52 14.934Z" fill="white"/>
<path d="M76.845 6.065V15.781L72.162 6.065H69.322V23.902H72.561V14.236L77.195 23.902H80.085V6.065H76.846" fill="white"/>
<path d="M105.253 22.86C105.253 22.6424 105.318 22.4298 105.438 22.2489C105.559 22.068 105.731 21.927 105.932 21.8437C106.133 21.7605 106.354 21.7387 106.568 21.7811C106.781 21.8236 106.977 21.9283 107.131 22.0822C107.285 22.236 107.389 22.432 107.432 22.6454C107.474 22.8588 107.453 23.0799 107.369 23.2809C107.286 23.4819 107.145 23.6537 106.964 23.7746C106.783 23.8955 106.571 23.96 106.353 23.96C106.062 23.9584 105.783 23.842 105.577 23.6361C105.371 23.4301 105.255 23.1512 105.253 22.86ZM106.353 23.86C106.551 23.86 106.744 23.8013 106.909 23.6915C107.073 23.5816 107.201 23.4254 107.277 23.2427C107.353 23.06 107.372 22.8589 107.334 22.6649C107.295 22.4709 107.2 22.2927 107.06 22.1529C106.92 22.013 106.742 21.9178 106.548 21.8792C106.354 21.8406 106.153 21.8604 105.97 21.9361C105.788 22.0118 105.631 22.14 105.522 22.3044C105.412 22.4689 105.353 22.6622 105.353 22.86C105.355 23.124 105.461 23.3766 105.648 23.5626C105.836 23.7486 106.089 23.853 106.353 23.853V23.86ZM106.053 22.36V22.808H106.453C106.48 22.8106 106.507 22.8073 106.533 22.7982C106.558 22.789 106.581 22.7744 106.6 22.7553C106.619 22.7361 106.634 22.713 106.643 22.6876C106.652 22.6621 106.656 22.6349 106.653 22.608C106.653 22.408 106.553 22.359 106.453 22.359L106.053 22.36ZM106.452 22.26C106.652 22.26 106.801 22.31 106.852 22.56C106.854 22.6184 106.841 22.6763 106.815 22.7287C106.789 22.781 106.751 22.8261 106.703 22.86C106.803 22.96 106.852 22.96 106.852 23.16C106.852 23.309 106.852 23.36 106.902 23.409V23.459H106.653C106.653 23.409 106.603 23.359 106.603 23.31C106.603 23.161 106.653 22.961 106.403 22.961H106.003V23.461H105.853V22.26H106.452Z" fill="white"/>
</svg>
